Coordinates
version=1
nRows=15
nColumns=34
inDegrees=yes

Units are S.I. units (second, meters, Newtons, ...)
If the header above contains a line with 'inDegrees', this indicates whether rotational values are in degrees (yes) or radians (no).

endheader
time	pelvis_tilt	pelvis_list	pelvis_rotation	pelvis_tx	pelvis_ty	pelvis_tz	hip_flexion_r	hip_adduction_r	hip_rotation_r	knee_angle_r	ankle_angle_r	subtalar_angle_r	mtp_angle_r	hip_flexion_l	hip_adduction_l	hip_rotation_l	knee_angle_l	ankle_angle_l	subtalar_angle_l	mtp_angle_l	lumbar_extension	lumbar_bending	lumbar_rotation	arm_flex_r	arm_add_r	arm_rot_r	elbow_flex_r	pro_sup_r	arm_flex_l	arm_add_l	arm_rot_l	elbow_flex_l	pro_sup_l
      0.00000000	     -2.90119973	      0.30942853	     -2.57297025	      0.56309774	      0.88579689	     -0.10434929	     -0.45563510	     -4.17067169	     -5.87364581	      3.36575716	      3.69199278	     -3.24717112	      0.00000000	     -1.53890982	     -4.54327238	     -9.90215483	      1.23110361	      3.52217216	     -4.09641367	      0.00000000	     -3.12635739	      1.98650551	      3.99725160	     67.04558354	      1.23085013	     60.95742865	    118.45378892	    116.75369953	     79.78590463	      3.85507414	     74.57181510	    133.04619367	     96.06217748
      0.01666670	     -4.60445440	      0.16849129	     -3.18554081	      0.56266235	      0.88283356	     -0.10601056	      1.63808311	     -3.81040575	     -5.09019621	      3.50959251	      5.95161112	     -2.00799837	      0.00000000	      0.13519814	     -4.40431966	    -12.55603971	      0.48049657	      3.95020893	     -1.84668506	      0.00000000	     -1.57170953	      2.42237841	      2.72623967	     70.80566075	      0.69554646	     61.19557497	    120.56098305	    115.14929825	     81.75439823	     -0.00259216	     68.52196058	    132.75279139	     97.45466453
      0.03333330	     -5.64632722	      0.54448249	     -3.43130830	      0.56196090	      0.88270795	     -0.10760625	      2.80155953	     -4.08978428	     -5.59229217	      3.14692696	      5.89677982	     -2.49597786	      0.00000000	      1.19292442	     -3.96775321	    -13.92660743	      0.00000000	      3.78625863	     -1.20991989	      0.00000000	     -0.53819678	      1.69633619	      2.73481372	     72.27652194	      0.27514603	     62.01459590	    123.95584168	    114.23711485	     81.44278036	     -2.40869333	     68.48643748	    126.27005851	     97.87373308
      0.05000000	     -5.78578989	      0.66167230	     -3.48593051	      0.56277390	      0.88183897	     -0.10830978	      2.77473571	     -4.24922991	     -5.60494110	      2.58106102	      6.04782118	     -2.29248844	      0.00000000	      1.36503850	     -3.79067847	    -14.88400916	      0.00000000	      3.88564901	     -0.91699872	      0.00000000	      0.20614005	      1.51289340	      4.29786512	     72.21179198	     -0.98494332	     63.58473643	    123.66589039	    113.68968960	     80.49719265	     -2.89393004	     69.43445537	    122.37235487	     97.99495346
      0.06666670	     -6.07053408	      0.78942964	     -3.02319022	      0.56056931	      0.88188791	     -0.11033266	      2.90619342	     -4.45792164	     -5.95935286	      2.35311082	      5.72641573	     -2.42850151	      0.00000000	      1.81256000	     -3.57203367	    -14.81033745	      0.00000000	      3.94822767	     -0.32380118	      0.00000000	      0.35936379	      1.30478046	      4.26875556	     72.16478260	     -1.85388480	     65.59563509	    125.23584874	    113.23805974	     80.53928173	     -2.10137923	     70.53472133	    122.32095911	     98.20026036
      0.08333330	     -5.97580775	      0.91902847	     -2.62094550	      0.56061083	      0.88268528	     -0.11124868	      2.64758684	     -4.64990696	     -6.04883697	      2.13279891	      5.76573099	     -2.82102055	      0.00000000	      1.84279508	     -3.29644392	    -14.80103359	      0.00000000	      3.96917180	     -0.11202684	      0.00000000	      0.07487236	      1.23826501	      3.53375762	     72.50747445	     -1.24177170	     66.55200105	    123.86997517	    112.59500139	     81.51849294	     -1.73869949	     71.49873747	    117.58866047	     98.31099597
      0.10000000	     -6.00406143	      0.97578833	     -2.55856492	      0.56232717	      0.88232511	     -0.11147038	      2.57802396	     -4.77287951	     -5.90449957	      2.00001037	      5.51238624	     -2.82521410	      0.00000000	      1.94567680	     -3.14599393	    -14.96285357	      0.00000000	      3.84466092	     -0.13604518	      0.00000000	      0.48061030	      1.09620582	      4.62068104	     71.50308241	     -1.96241242	     67.10844131	    123.77178867	    112.23931157	     80.70892081	     -0.51429240	     72.63616881	    120.37677015	     98.43080468
      0.11666670	     -6.08231816	      1.02294827	     -2.28792921	      0.56016343	      0.87918905	     -0.11330713	      2.60157978	     -4.88058052	     -5.67930348	      1.94918642	      5.47804849	     -3.37417114	      0.00000000	      2.08538609	     -3.01608033	    -14.70452072	      0.00000000	      3.86209428	     -0.20552513	      0.00000000	      0.39676759	      1.00615918	      4.95203331	     71.68157707	     -1.76201058	     67.65174640	    124.15792095	    111.46989719	     80.93050517	      0.44557094	     73.46004716	    124.58912089	     98.76436000
      0.13333330	     -6.11895678	      1.08100300	     -2.10024037	      0.56109301	      0.87993232	     -0.11343483	      2.50701190	     -4.99833831	     -5.70064058	      1.72176422	      5.30680603	     -3.77237399	      0.00000000	      2.20982519	     -2.88497551	    -14.58150591	      0.00000000	      3.82797151	     -0.27728957	      0.00000000	     -0.06720265	      0.99422068	      4.18403787	     72.53021062	     -0.40265639	     68.14257175	    124.46441013	    110.98609119	     81.30731223	     -0.26699666	     73.32183913	    121.82117865	     98.83375667
      0.15000000	     -6.08772214	      1.03181110	     -2.12875320	      0.56153735	      0.87624952	     -0.11332184	      2.46276890	     -4.96683150	     -5.53484444	      1.63561514	      5.04088427	     -3.88914067	      0.00000000	      2.19185355	     -2.90471261	    -14.52075483	      0.00000000	      3.86722216	     -0.47466845	      0.00000000	      0.05094291	      0.88093515	      5.12635360	     72.15497324	     -1.21409856	     68.04545101	    124.35816998	    110.63477909	     80.36237732	      0.36809921	     73.24197911	    125.13247609	     98.85851915
      0.16666670	     -6.26833052	      1.02740687	     -2.18601420	      0.56208371	      0.87137542	     -0.11437288	      2.65954329	     -4.98748753	     -5.45983862	      1.57576876	      5.16524000	     -4.14058868	      0.00000000	      2.30661821	     -2.85708031	    -14.68426480	      0.00000000	      4.00689206	     -0.64341128	      0.00000000	     -0.00301109	      0.93162391	      4.50005493	     73.06637334	      0.49437521	     68.01736500	    125.46740664	    110.41835924	     80.83036029	      0.21939478	     72.82002387	    124.49317644	     98.84495930
      0.18333330	     -6.35380054	      0.94821124	     -2.17262848	      0.56441587	      0.87435228	     -0.11465953	      2.59410777	     -4.90575989	     -5.43238114	      1.34589742	      5.24129823	     -4.24576441	      0.00000000	      2.29291231	     -2.88891074	    -14.81093469	      0.00000000	      4.07659588	     -0.75519731	      0.00000000	      0.11215556	      0.86650207	      4.18894298	     73.24293232	      0.45571909	     67.98025265	    125.24913210	    110.33458576	     80.93914791	      0.58146246	     72.71411391	    124.75485177	     98.82689640
      0.20000000	     -6.50245187	      0.82019099	     -1.96902283	      0.56354756	      0.87107193	     -0.11584201	      2.58450822	     -4.77522824	     -5.48552812	      1.16842284	      5.44894207	     -4.52130553	      0.00000000	      2.35257063	     -2.98007749	    -14.46274807	      0.00000000	      4.25612248	     -0.70860756	      0.00000000	      0.20421596	      0.88940455	      4.47417034	     73.53605907	     -0.21323719	     67.58474548	    123.68787959	    110.16254011	     81.15564754	      1.47088891	     72.62012278	    125.61804328	     98.77962594
      0.21666670	     -6.51233515	      0.77943929	     -1.84017087	      0.56276606	      0.87540610	     -0.11608070	      2.49688648	     -4.76868110	     -5.28233733	      1.14945084	      5.23554499	     -4.81032581	      0.00000000	      2.30108355	     -3.00834044	    -14.18276142	      0.00000000	      4.16198852	     -0.77931130	      0.00000000	      0.26802893	      1.18392513	      3.50511742	     72.79965115	      0.60528647	     67.46037826	    121.09344200	    109.32979428	     80.57502426	     -0.26640471	     72.73260205	    123.48879459	     98.47692324
      0.23333330	     -6.61912674	      0.71385359	     -1.71380198	      0.56397863	      0.87027628	     -0.11717066	      2.48017228	     -4.70603013	     -5.37111406	      0.95508457	      5.38379789	     -4.98838460	      0.00000000	      2.34368179	     -3.03792691	    -14.04175403	      0.00000000	      4.33468423	     -0.76660503	      0.00000000	      0.40120919	      1.45748498	      3.54363504	     72.68796277	      0.46241849	     67.46541628	    121.02104138	    109.15561131	     80.55802902	     -1.09824593	     72.54554969	    123.02034495	     98.39196189
